<svg width="56" height="51" viewBox="0 0 56 51" fill="none" xmlns="http://www.w3.org/2000/svg">
<path fill-rule="evenodd" clip-rule="evenodd" d="M30.9687 1.13394C30.1008 0.934485 29.0345 1.81113 28.8338 2.6784C28.633 3.54567 28.8593 4.8591 29.7266 5.05919C33.7366 5.98642 37.8146 7.78986 40.7377 10.7136C49.3315 19.3074 49.0339 32.1767 40.4401 40.7711C31.8457 49.3649 18.977 49.0673 10.3826 40.4735C1.78883 31.8791 1.7882 19.605 10.3826 11.0112C12.8493 8.54318 15.4237 6.7369 18.7154 5.65439C19.5612 5.37603 19.8865 3.82118 19.6082 2.976C19.3305 2.13019 18.1857 1.46974 17.3399 1.74873C13.564 2.9903 10.2161 5.0537 7.38835 7.88084C-2.46278 17.732 -2.46278 33.7607 7.38835 43.6118C12.3142 48.5377 18.784 51 25.2538 51C31.7242 51 38.194 48.5377 43.1192 43.6118C52.9697 33.7607 52.9697 17.732 43.1192 7.88084C39.7688 4.53043 35.5676 2.19752 30.9687 1.13394Z" fill="black"/>
<path fill-rule="evenodd" clip-rule="evenodd" d="M9.40922 18.0054C8.32616 19.0734 8.32616 20.8057 9.40922 21.8737L23.2338 35.5068C23.7758 36.0403 24.4852 36.3071 25.1957 36.3071C25.905 36.3071 26.6155 36.0403 27.1565 35.5068L54.8045 8.24064C55.8886 7.17257 55.8886 5.44031 54.8045 4.37225C53.7214 3.30418 51.9659 3.30418 50.8817 4.37225L25.1946 29.7037L13.3319 18.0054C12.2489 16.9373 10.4923 16.9373 9.40922 18.0054Z" fill="black"/>
<path fill-rule="evenodd" clip-rule="evenodd" d="M24.0727 4.76158C25.3836 4.76158 26.453 3.69216 26.453 2.38033C26.453 1.06942 25.3836 0 24.0727 0C22.7608 0 21.6914 1.06942 21.6914 2.38033C21.6914 3.69216 22.7608 4.76158 24.0727 4.76158Z" fill="black"/>
</svg>
