<svg height="512pt" viewBox="0 -48 512.00051 512" width="512pt" xmlns="http://www.w3.org/2000/svg"><path d="m504.910156 230.910156c-6.171875-9.058594-15.527344-15.191406-26.347656-17.25-10.832031-2.070312-21.792969.179688-30.863281 6.320313l-113.644531 76.929687c-5.25 3.558594-11.589844 4.859375-17.832032 3.671875l-14.699218-2.8125c.578124-1.738281 1.050781-3.519531 1.398437-5.339843 2.070313-10.789063-.199219-21.75-6.378906-30.828126-6.171875-9.089843-15.519531-15.230468-26.339844-17.300781l-174.445313-33.371093c-15.648437-2.988282-31.449218 1.261718-43.46875 11.652343l-47.898437 32.417969c-2.75 1.859375-4.390625 4.96875-4.390625 8.289062l.128906 142.722657c0 3.488281 1.832032 6.730469 4.8125 8.539062 1.589844.960938 3.386719 1.449219 5.1875 1.449219 1.582032 0 3.160156-.371094 4.601563-1.121094l125.289062-64.957031c2.199219.867187 4.5 1.539063 6.867188 2l179.6875 34.320313c2.710937.519531 5.429687.769531 8.128906.769531 8.472656 0 16.75-2.519531 23.921875-7.371094l135.328125-91.589844h.007813c9.082031-6.152343 15.222656-15.492187 17.292968-26.308593 2.066406-10.8125-.183594-21.761719-6.34375-30.832032zm-484.789062 158.648438-.121094-120.976563 38.949219-26.363281 63.957031 94.042969zm471.488281-131.578125c-1.070313 5.558593-4.21875 10.359375-8.867187 13.511719l-135.320313 91.589843c-5.050781 3.410157-11.117187 4.660157-17.089844 3.519531l-179.6875-34.320312c-4.5-.859375-8.417969-3.371094-11.019531-7.019531l-.089844-.121094c-.027344-.039063-.058594-.082031-.089844-.121094l-53.519531-78.699219-9.980469-14.679687c5.089844-1.710937 10.589844-2.109375 16.0625-1.070313l174.4375 33.371094c5.570313 1.070313 10.390626 4.230469 13.558594 8.910156 3.179688 4.660157 4.339844 10.277344 3.28125 15.796876-.351562 1.84375-.949218 3.621093-1.761718 5.28125l-77.296876-14.78125c-5.429687-1.039063-10.671874 2.523437-11.710937 7.941406-1.03125 5.429687 2.519531 10.671875 7.949219 11.699218l83.757812 16.03125 28.238282 5.398438c11.492187 2.203125 23.140624-.199219 32.808593-6.75l113.648438-76.929688c4.652343-3.160156 10.300781-4.296874 15.890625-3.238281 5.582031 1.070313 10.402344 4.21875 13.558594 8.859375 3.152343 4.640625 4.304687 10.261719 3.242187 15.820313zm0 0"/><path d="m255.996094 220c-60.652344 0-110-49.347656-110-110s49.347656-110 110-110 109.996094 49.347656 109.996094 110-49.34375 110-109.996094 110zm0-200c-49.625 0-90 40.375-90 90s40.375 90 90 90 89.996094-40.375 89.996094-90-40.371094-90-89.996094-90zm0 0"/><path d="m239.566406 150.714844c-2.558594 0-5.117187-.976563-7.070312-2.929688l-28.570313-28.570312c-3.90625-3.90625-3.90625-10.238282 0-14.144532 3.90625-3.902343 10.234375-3.902343 14.140625 0l21.5 21.5 54.355469-54.355468c3.90625-3.90625 10.238281-3.90625 14.144531 0 3.902344 3.902344 3.902344 10.234375 0 14.140625l-61.429687 61.429687c-1.953125 1.953125-4.511719 2.929688-7.070313 2.929688zm0 0"/><path d="m414.742188 385.007812c-3.199219 0-6.34375-1.53125-8.277344-4.375-3.105469-4.570312-1.921875-10.789062 2.644531-13.894531l73.648437-50.089843c4.566407-3.105469 10.789063-1.921876 13.894532 2.648437 3.105468 4.566406 1.921875 10.785156-2.644532 13.890625l-73.652343 50.089844c-1.71875 1.167968-3.675781 1.730468-5.613281 1.730468zm0 0"/><path d="m386.109375 404.484375c-5.519531 0-10.003906-4.476563-10.003906-10 0-5.519531 4.472656-10 9.996093-10h.007813c5.523437 0 10 4.480469 10 10 0 5.523437-4.476563 10-10 10zm0 0"/></svg>