<svg width="12" height="12" viewBox="0 0 12 12" fill="none" xmlns="http://www.w3.org/2000/svg">
<path d="M6 1.125C8.7 1.125 10.875 3.3 10.875 6C10.875 8.7 8.7 10.875 6 10.875C3.3 10.875 1.125 8.7 1.125 6C1.125 3.3 3.3 1.125 6 1.125ZM6 0C2.7 0 0 2.7 0 6C0 9.3 2.7 12 6 12C9.3 12 12 9.3 12 6C12 2.7 9.3 0 6 0Z" fill="white"/>
<path d="M7.425 7.725C7.05 8.025 6.525 8.25 6 8.25C4.725 8.25 3.75 7.275 3.75 6C3.75 4.725 4.725 3.75 6 3.75C6.6 3.75 7.2 3.975 7.575 4.425L8.4 3.6C7.8 3 6.9 2.625 6 2.625C4.125 2.625 2.625 4.125 2.625 6C2.625 7.875 4.125 9.375 6 9.375C6.825 9.375 7.5 9.075 8.1 8.625L7.425 7.725V7.725Z" fill="white"/>
</svg>
