<svg width="43" height="51" viewBox="0 0 43 51" fill="none" xmlns="http://www.w3.org/2000/svg">
<path d="M6.3534 40.3814C6.3534 40.9446 6.57652 41.4848 6.97368 41.8831C7.37085 42.2814 7.90952 42.5051 8.47119 42.5051C8.47119 44.7581 9.36369 46.9188 10.9523 48.5119C12.541 50.105 14.6957 51 16.9424 51H25.4136C27.6603 51 29.8149 50.105 31.4036 48.5119C32.9922 46.9188 33.8847 44.7581 33.8847 42.5051C34.4464 42.5051 34.9851 42.2814 35.3822 41.8831C35.7794 41.4848 36.0025 40.9446 36.0025 40.3814V36.4037C39.0067 33.4508 41.0658 29.6676 41.9174 25.5365C42.769 21.4054 42.3745 17.1136 40.7841 13.2083C39.1938 9.30297 36.4796 5.96106 32.9878 3.60867C29.496 1.25628 25.3846 0 21.178 0C16.9713 0 12.86 1.25628 9.36813 3.60867C5.87629 5.96106 3.16216 9.30297 1.5718 13.2083C-0.0185556 17.1136 -0.413087 21.4054 0.438511 25.5365C1.29011 29.6676 3.34925 33.4508 6.3534 36.4037V40.3814ZM25.4136 46.7526H16.9424C15.819 46.7526 14.7417 46.3051 13.9474 45.5085C13.153 44.712 12.7068 43.6316 12.7068 42.5051H29.6491C29.6491 43.6316 29.2029 44.712 28.4086 45.5085C27.6142 46.3051 26.5369 46.7526 25.4136 46.7526ZM4.2356 21.2679C4.23096 18.4327 4.93394 15.6413 6.2805 13.1483C7.62705 10.6553 9.57434 8.53986 11.9449 6.99476C14.3155 5.44965 17.034 4.52403 19.8526 4.30225C22.6713 4.08047 25.5005 4.56957 28.0824 5.72499C30.6642 6.88041 32.9167 8.66541 34.6345 10.9173C36.3524 13.1692 37.4809 15.8164 37.9173 18.6177C38.3537 21.4189 38.084 24.2851 37.133 26.9551C36.1819 29.6251 34.5796 32.014 32.4722 33.904C32.249 34.1044 32.0707 34.35 31.9491 34.6245C31.8276 34.8991 31.7655 35.1964 31.7669 35.4968V38.2577H27.5314V34.0102H23.2958V38.2577H19.0602V34.0102H14.8246V38.2577H10.589V35.4968C10.589 35.1982 10.5262 34.9029 10.4046 34.6303C10.2831 34.3577 10.1056 34.1138 9.88376 33.9146C8.10982 32.3223 6.69009 30.3732 5.71696 28.1943C4.74382 26.0154 4.23909 23.6554 4.2356 21.2679Z" fill="black"/>
<path d="M13.5423 25.6441C16.9348 25.6441 19.5932 22.9862 19.5932 19.5932C19.5932 16.2002 16.9348 13.5424 13.5423 13.5424C10.1498 13.5424 7.49146 16.2002 7.49146 19.5932C7.49146 22.9862 10.1498 25.6441 13.5423 25.6441ZM13.5423 17.5763C14.3652 17.5763 15.5593 17.7462 15.5593 19.5932C15.5593 21.4402 14.3652 21.6102 13.5423 21.6102C12.7194 21.6102 11.5254 21.4402 11.5254 19.5932C11.5254 17.7462 12.7194 17.5763 13.5423 17.5763Z" fill="black"/>
<path d="M29.1016 25.6441C32.4941 25.6441 35.1525 22.9862 35.1525 19.5932C35.1525 16.2002 32.4941 13.5424 29.1016 13.5424C25.7091 13.5424 23.0508 16.2002 23.0508 19.5932C23.0508 22.9862 25.7091 25.6441 29.1016 25.6441ZM29.1016 17.5763C29.9245 17.5763 31.1186 17.7462 31.1186 19.5932C31.1186 21.4402 29.9245 21.6102 29.1016 21.6102C28.2787 21.6102 27.0847 21.4402 27.0847 19.5932C27.0847 17.7462 28.2787 17.5763 29.1016 17.5763Z" fill="black"/>
</svg>
