<svg width="152" height="152" viewBox="0 0 152 152" fill="none" xmlns="http://www.w3.org/2000/svg">
<rect width="152" height="152" rx="76" fill="white"/>
<path d="M116.767 44.5227C111.643 42.7624 107.538 38.6341 105.786 33.4793C104.671 30.2015 101.603 28 98.1491 28H53.6517C50.1988 28 47.1296 30.2015 46.0152 33.4793C44.2627 38.6341 40.1577 42.7624 35.0333 44.5227C31.7727 45.6433 29.582 48.7211 29.582 52.1817V63.4384C29.582 78.1276 33.9835 92.2714 42.311 104.341C49.9304 115.385 60.4298 124.027 72.6755 129.334C73.7004 129.778 74.8 130 75.9004 130C77 130 78.0996 129.778 79.1245 129.334C91.3702 124.027 101.87 115.385 109.489 104.341C117.816 92.2714 122.219 78.1269 122.219 63.4384V52.1817C122.219 48.7211 120.028 45.6433 116.767 44.5227ZM116.242 63.4384C116.242 76.909 112.206 89.8792 104.569 100.948C97.5864 111.069 87.9656 118.988 76.7478 123.85C76.2101 124.083 75.5914 124.084 75.0522 123.85C63.8336 118.988 54.2136 111.069 47.2308 100.948C39.5951 89.88 35.5586 76.9098 35.5586 63.4384V52.1817C35.5586 51.2728 36.1282 50.4666 36.9757 50.1755C43.8355 47.8184 49.3304 42.2963 51.6735 35.403C51.9638 34.5501 52.7583 33.9766 53.6517 33.9766H98.1491C99.0417 33.9766 99.837 34.5501 100.127 35.403C102.47 42.2963 107.965 47.8184 114.825 50.1755C115.673 50.4666 116.242 51.2728 116.242 52.1817V63.4384Z" fill="black"/>
<g clip-path="url(#clip0)">
<path d="M100.232 73.2403C100.13 71.926 99.5362 70.7516 98.5588 69.9333C97.6439 69.1674 96.4941 68.8104 95.3211 68.928C93.7212 69.0885 92.3121 70.135 91.6175 71.6417L90.1636 71.7701L88.7285 71.3679C88.617 71.3366 88.527 71.2483 88.4878 71.1316C88.0708 69.891 87.4756 68.7195 86.7172 67.6465L87.2251 66.281L88.8279 64.5474C89.7396 64.5168 90.5874 64.115 91.1953 63.4143C92.2953 62.1463 92.2496 60.2031 91.091 58.9904C90.4551 58.325 89.5986 57.9602 88.6825 57.97C87.778 57.9774 86.9072 58.3623 86.2933 59.0264C85.692 59.6767 85.3841 60.525 85.4223 61.3982L83.8193 63.1321L82.4761 63.7552C80.4726 62.584 78.1976 61.9507 75.8705 61.9169L74.9923 60.5162L74.6825 58.9771C75.9165 57.968 76.4931 56.4008 76.1634 54.8569C75.6685 52.54 73.2827 51.0308 70.8455 51.4931C69.6184 51.7257 68.5743 52.4081 67.9056 53.4143C67.2793 54.3569 67.0629 55.4783 67.2965 56.5718C67.6079 58.0299 68.6649 59.206 70.1028 59.7308L70.445 61.4312L70.1728 63.0886C68.9331 63.6431 67.7897 64.3783 66.7654 65.2794L65.7586 65.1L64.621 64.2417C64.4584 63.3778 63.9597 62.6171 63.2187 62.12C61.8358 61.192 59.9762 61.4458 58.8931 62.7103C58.2944 63.4094 58.0191 64.2967 58.118 65.2085C58.2156 66.1078 58.6856 66.9358 59.4075 67.4805C60.1539 68.0436 61.1032 68.2584 62.0118 68.0837L62.9651 68.8029L63.3927 69.6779C63.4116 69.7166 63.4121 69.7612 63.3942 69.8003C62.5787 71.5734 62.1653 73.4664 62.1653 75.4267C62.1653 75.7896 62.1804 76.1584 62.21 76.523C62.2145 76.5793 62.1923 76.6307 62.1504 76.6605L60.5405 77.8076L58.703 78.3856C57.5748 77.5127 56.083 77.249 54.7099 77.7028C54.6825 77.712 54.6554 77.7218 54.6284 77.7318L54.6057 77.7401C54.2274 77.8764 54.0312 78.2935 54.1674 78.6718C54.3036 79.0499 54.7205 79.2463 55.0991 79.11L55.1331 79.0976C55.1446 79.0934 55.156 79.089 55.1674 79.0853C56.1702 78.7537 57.269 79.0003 58.0351 79.7288C58.1725 79.8594 58.3527 79.9292 58.5368 79.9292C58.6098 79.9292 58.6834 79.9182 58.7552 79.8956L61.0875 79.1618C61.1604 79.1389 61.2292 79.1047 61.2915 79.0603L62.9952 77.8464C63.452 77.521 63.7072 76.9686 63.6612 76.4048C63.6348 76.0793 63.6213 75.7502 63.6213 75.4266C63.6213 73.6778 63.99 71.9894 64.7171 70.4085C64.9183 69.9708 64.9125 69.4715 64.701 69.0386L64.1968 68.007C64.1465 67.904 64.0727 67.8145 63.9812 67.7455L62.6107 66.7115C62.4219 66.569 62.1754 66.5272 61.9503 66.5994C61.3819 66.7815 60.7592 66.6763 60.2845 66.3181C59.8761 66.0101 59.6209 65.5602 59.5657 65.0514C59.5105 64.5431 59.6645 64.0481 59.9991 63.6574C60.5922 62.965 61.6501 62.8207 62.4076 63.3289C62.8746 63.6424 63.1693 64.1426 63.2162 64.7017C63.2334 64.9081 63.3378 65.0974 63.5032 65.2221L65.0211 66.3673C65.1125 66.4363 65.219 66.4827 65.3318 66.5028L66.8612 66.7754C67.0863 66.8156 67.3167 66.7476 67.4841 66.5923C68.5496 65.6036 69.7674 64.8234 71.1039 64.2733C71.3373 64.1772 71.5043 63.9671 71.5451 63.7181L71.9035 61.536C71.9178 61.4492 71.9161 61.3606 71.8988 61.2744L71.4455 59.021C71.3904 58.7474 71.1838 58.5293 70.9134 58.4597C69.7877 58.1697 68.9474 57.3297 68.7207 56.2679C68.5697 55.5609 68.711 54.8337 69.1187 54.2202C69.5686 53.5432 70.2783 53.0827 71.1171 52.9237C72.784 52.608 74.409 53.6114 74.7399 55.161C74.9768 56.2706 74.4831 57.4058 73.4821 58.0531C73.231 58.2155 73.1047 58.5149 73.1637 58.8081L73.5915 60.9338C73.6089 61.02 73.6417 61.1023 73.6884 61.1769L74.7399 62.8543C74.943 63.1782 75.2923 63.3715 75.6763 63.3715H75.6767C77.8679 63.3715 80.0152 63.9687 81.8867 65.0986C82.2004 65.2879 82.5855 65.3094 82.9167 65.1559L84.5626 64.3924C84.6488 64.3524 84.7264 64.2959 84.7908 64.2262L86.7128 62.1474C86.8636 61.9844 86.9316 61.7614 86.8977 61.5418C86.8114 60.9843 86.9808 60.4277 87.3626 60.0149C87.7098 59.6393 88.1829 59.4303 88.6947 59.426C89.2044 59.4259 89.6832 59.6243 90.0385 59.9964C90.6835 60.6714 90.7087 61.7536 90.0957 62.4601C89.7113 62.9031 89.1551 63.1318 88.5696 63.0878C88.3482 63.071 88.1311 63.1565 87.9804 63.3196L86.0585 65.3984C85.994 65.4681 85.9438 65.5498 85.9107 65.6388L85.2859 67.3189C85.1575 67.6641 85.2109 68.0489 85.4288 68.3481C86.153 69.3431 86.7179 70.4357 87.1078 71.5957C87.3007 72.1697 87.7597 72.6087 88.3358 72.7701L89.8989 73.2082C89.9835 73.2319 90.0717 73.24 90.1594 73.2323L92.1893 73.0531C92.4749 73.0278 92.719 72.8375 92.8131 72.5667C93.2334 71.3559 94.275 70.4964 95.4667 70.3769C96.246 70.2987 97.0127 70.5378 97.6246 71.05C98.2989 71.6145 98.7094 72.4322 98.7803 73.3523C98.827 73.9603 98.7172 74.5709 98.4625 75.1181C98.2928 75.4825 98.4506 75.9155 98.8152 76.0853C99.1799 76.255 99.6128 76.0972 99.7825 75.7326C100.142 74.959 100.297 74.0972 100.232 73.2403V73.2403Z" fill="black"/>
<path d="M96.5676 76.8451C96.3633 76.9123 96.1525 76.9572 95.9411 76.9784C94.6812 77.1045 93.5037 76.4069 92.94 75.2007C92.8105 74.9234 92.5211 74.7566 92.2164 74.7838L90.3108 74.9521C90.2232 74.9598 90.1377 74.9833 90.0585 75.0216L88.6201 75.7155C88.0752 75.9784 87.6991 76.4977 87.6144 77.1045C87.4882 78.0075 87.2583 78.8963 86.9311 79.7459C86.7358 80.2531 86.7744 80.8134 87.0371 81.2831L87.5495 82.1992C87.6054 82.2992 87.6841 82.3846 87.7793 82.4484L89.205 83.4049C89.4014 83.5367 89.6498 83.5648 89.8707 83.4803C90.428 83.2671 91.0556 83.3375 91.5496 83.6689C91.9742 83.9538 92.2541 84.3889 92.3374 84.8938C92.4205 85.3982 92.2944 85.9011 91.9818 86.3097C91.4279 87.034 90.3798 87.2367 89.5952 86.7711C89.1116 86.4841 88.7896 86.0008 88.7118 85.4451C88.6831 85.24 88.5684 85.0569 88.3964 84.9416L86.8173 83.8822C86.7222 83.8183 86.6133 83.7778 86.4996 83.7641L85.5057 83.6432C84.9498 83.5755 84.3956 83.7609 83.9855 84.1518C83.1895 84.9102 82.2957 85.5562 81.3291 86.0717C80.7668 86.3715 80.3926 86.9564 80.3524 87.598L80.2263 89.6115C80.2216 89.6866 80.2285 89.762 80.247 89.8349L80.8718 92.3145C80.9355 92.5678 81.1302 92.7675 81.3816 92.8377C82.2293 93.0749 82.8894 93.7512 83.104 94.6028C83.2674 95.2512 83.1641 95.9219 82.813 96.4913C82.4622 97.0604 81.9087 97.454 81.2546 97.5997C80.0352 97.8715 78.7768 97.1553 78.3905 95.9694C78.0987 95.0736 78.3344 94.1078 79.0054 93.449C79.1899 93.2678 79.2644 93.0024 79.2013 92.7516L78.5726 90.2568C78.5542 90.1839 78.5246 90.1142 78.4849 90.0504L77.5157 88.4914C77.1229 87.8594 76.4386 87.4823 75.6776 87.4823C75.6771 87.4823 75.6766 87.4823 75.676 87.4823C74.8888 87.4823 74.1007 87.4053 73.3335 87.2535C72.6022 87.1087 71.8626 87.3422 71.3552 87.8777L70.0737 89.2301C70.022 89.2847 69.979 89.3469 69.9463 89.4147L68.5118 92.3908C68.4146 92.5924 68.4156 92.8276 68.5144 93.0284C68.7657 93.5389 68.7686 94.1247 68.5224 94.6357C68.3001 95.0969 67.9085 95.4354 67.4199 95.5891C66.9317 95.7426 66.4156 95.688 65.9667 95.4354C65.1773 94.9912 64.8281 93.9863 65.1718 93.148C65.4009 92.589 65.8692 92.19 66.4565 92.0533C66.6711 92.0034 66.8517 91.8589 66.9474 91.6604L68.3912 88.6651C68.4238 88.5974 68.4458 88.525 68.4562 88.4505L68.739 86.4397C68.8267 85.8168 68.5801 85.186 68.0958 84.7933C67.0048 83.9085 66.0836 82.8527 65.3577 81.6551C65.0397 81.1304 64.4573 80.8008 63.8377 80.795L61.8303 80.7759C61.7538 80.7749 61.6778 80.7864 61.6049 80.8094L59.4072 81.5008C59.1324 81.5872 58.9344 81.8276 58.9021 82.1138C58.7758 83.237 57.9982 84.1816 56.9213 84.5204C55.4361 84.9877 53.8339 84.164 53.3504 82.684C53.1582 82.0957 53.1644 81.4713 53.3686 80.8785C53.4994 80.4983 53.2973 80.084 52.9171 79.9531C52.5368 79.8221 52.1226 80.0245 51.9918 80.4046C51.6838 81.2995 51.6749 82.2441 51.9663 83.1361C52.5579 84.9467 54.2576 86.1069 56.0747 86.1069C56.5002 86.1069 56.9326 86.0432 57.3582 85.9092C58.8287 85.4463 59.9293 84.2365 60.268 82.7559L61.9323 82.2323L63.8243 82.2503C63.9437 82.2515 64.0543 82.3123 64.113 82.4092C64.9259 83.7506 65.9575 84.933 67.1791 85.9237C67.2691 85.9966 67.3145 86.1165 67.2976 86.2364L67.0306 88.135L65.7762 90.7376C64.8977 91.0485 64.1827 91.7228 63.825 92.5956C63.1973 94.1265 63.8113 95.8929 65.2531 96.7042C66.056 97.1561 66.981 97.2534 67.8569 96.9779C68.7206 96.7064 69.4414 96.0831 69.8344 95.2677C70.2223 94.4629 70.266 93.5553 69.9665 92.7268L71.2091 90.1489L72.4125 88.879C72.5743 88.7081 72.813 88.6344 73.0513 88.6815C73.9113 88.8517 74.7945 88.9381 75.6849 88.9381H75.6855C75.9323 88.9381 76.1544 89.0584 76.2797 89.26L77.189 90.7226L77.6945 92.7286C76.8527 93.756 76.5875 95.1336 77.0065 96.4203C77.5345 98.0416 79.0834 99.1125 80.7396 99.1124C81.0152 99.1124 81.2941 99.0827 81.5715 99.021C82.6127 98.7891 83.4939 98.1621 84.0528 97.2554C84.6119 96.3484 84.7765 95.28 84.5161 94.2471C84.2101 93.0325 83.3358 92.0418 82.1876 91.5767L81.6868 89.5892L81.8058 87.689C81.8147 87.5478 81.8947 87.4204 82.0144 87.3565C83.0975 86.7788 84.0987 86.0553 84.9902 85.206C85.0841 85.1166 85.208 85.074 85.3303 85.0887L86.1512 85.1885L87.3347 85.9825C87.5448 86.8361 88.085 87.5679 88.8524 88.0233C90.2846 88.8731 92.1272 88.5168 93.1385 87.1942C93.6977 86.463 93.9234 85.5619 93.774 84.6569C93.6268 83.7644 93.1117 82.9636 92.3608 82.4599C91.5843 81.939 90.6245 81.7772 89.727 82.0018L88.7353 81.3365L88.3081 80.5726C88.2574 80.4817 88.2508 80.3712 88.29 80.2693C88.6571 79.316 88.915 78.319 89.0565 77.3061C89.0738 77.1824 89.1473 77.078 89.2529 77.0271L90.5715 76.3909L91.8661 76.2765C92.7659 77.7658 94.3715 78.5994 96.0865 78.4273C96.403 78.3956 96.718 78.3286 97.0229 78.2284C97.4048 78.1026 97.6124 77.6912 97.4867 77.3092C97.361 76.927 96.9495 76.7195 96.5676 76.8451V76.8451Z" fill="black"/>
<path d="M78.0153 65.5033C77.2521 65.324 76.4651 65.2332 75.6764 65.2332C70.0557 65.2332 65.4828 69.806 65.4828 75.4268C65.4828 81.0477 70.0556 85.6205 75.6764 85.6205C81.2972 85.6205 85.87 81.0477 85.87 75.4268C85.87 71.9124 84.0948 68.6907 81.1213 66.8084C80.7815 66.5933 80.3317 66.6944 80.1168 67.0341C79.9017 67.3738 80.0028 67.8235 80.3426 68.0386C82.892 69.6524 84.414 72.4145 84.414 75.4268C84.414 80.2447 80.4944 84.1645 75.6764 84.1645C70.8584 84.1645 66.9388 80.2448 66.9388 75.4268C66.9388 70.6088 70.8584 66.6892 75.6764 66.6892C76.3532 66.6892 77.0281 66.7671 77.6825 66.9208C78.0739 67.013 78.4657 66.7699 78.5576 66.3786C78.6495 65.9871 78.4067 65.5953 78.0153 65.5033V65.5033Z" fill="black"/>
<path d="M59.7494 58.9458C61.6373 58.9458 63.1731 57.41 63.1731 55.5222C63.1731 53.6343 61.6373 52.0985 59.7494 52.0985C57.8616 52.0985 56.3258 53.6344 56.3258 55.5223C56.3258 57.41 57.8616 58.9458 59.7494 58.9458ZM59.7494 56.7853C60.8343 56.7853 59.8332 54.4374 59.8332 55.5223C59.8332 56.6072 60.8343 53.5121 59.7494 53.5121C58.6645 53.5121 60.3934 56.6071 60.3934 55.5222C60.3934 54.4373 58.6645 56.7853 59.7494 56.7853Z" fill="black"/>
<path d="M59.0126 88.5462C57.6294 88.5462 56.504 89.6715 56.504 91.0547C56.504 92.4379 57.6293 93.5633 59.0126 93.5633C60.3958 93.5633 61.5211 92.438 61.5211 91.0547C61.5211 89.6716 60.3958 88.5462 59.0126 88.5462ZM59.0126 92.1073C58.4322 92.1073 60.0651 92.6878 60.0651 92.1073C60.0651 91.5269 58.9769 92.1073 59.5574 92.1073C60.1377 92.1073 58.4426 92.0754 58.4426 92.6557C58.4426 93.2362 59.593 92.1073 59.0126 92.1073Z" fill="black"/>
<path d="M91.7035 90.6291C89.8561 90.6291 88.353 92.1321 88.353 93.9796C88.353 95.8272 89.856 97.3302 91.7035 97.3302C93.5511 97.3302 95.0541 95.8272 95.0541 93.9796C95.0541 92.1321 93.551 90.6291 91.7035 90.6291ZM91.7035 92.0984C90.6589 92.0984 91.8853 95.0939 91.8853 94.0492C91.8853 93.0045 90.6588 96.3938 91.7035 96.3938C92.7482 96.3938 91.6066 93.0045 91.6066 94.0492C91.6066 95.0939 92.7481 92.0984 91.7035 92.0984Z" fill="black"/>
<path d="M75.9438 72.8164C75.9438 71.0668 74.5204 69.6434 72.7708 69.6434C71.0212 69.6434 69.5978 71.0668 69.5978 72.8164C69.5978 74.566 71.0212 75.9894 72.7708 75.9894C74.5204 75.9894 75.9438 74.5659 75.9438 72.8164ZM72.3771 72.8164C72.3771 73.7632 71.4303 72.8164 72.3771 72.8164C72.3771 71.8696 70.3155 74.2623 71.2623 74.2623C71.2623 73.3155 72.2091 74.2623 71.2623 74.2623C71.2623 75.2091 73.3238 72.8164 72.3771 72.8164Z" fill="black"/>
<path d="M74.7336 82.8028C76.0526 82.8028 77.1258 81.7296 77.1258 80.4106C77.1258 79.0916 76.0526 78.0184 74.7336 78.0184C73.4145 78.0184 72.3414 79.0916 72.3414 80.4106C72.3414 81.7297 73.4144 82.8028 74.7336 82.8028ZM74.7336 80.3934C75.2498 80.3934 74.3279 79.8772 74.3279 80.3934C74.3279 80.9096 75.2658 80.2104 74.7496 80.2104C74.2334 80.2104 75.1639 80.9268 75.1639 80.4106C75.1639 79.8944 74.2173 80.3934 74.7336 80.3934Z" fill="black"/>
<path d="M77.8337 75.4268C77.8337 76.5988 78.7872 77.5523 79.9592 77.5523C81.1311 77.5523 82.0846 76.5988 82.0846 75.4268C82.0846 74.2548 81.1311 73.3014 79.9592 73.3014C78.7872 73.3014 77.8337 74.2547 77.8337 75.4268ZM79.9592 74.7573C80.3283 74.7573 78.5082 74.1718 78.5082 74.541C78.5082 74.9101 80.3283 76.0962 79.9592 76.0962C79.59 76.0962 81.0164 76.3036 81.0164 75.9344C81.0164 75.5653 79.5899 74.7573 79.9592 74.7573Z" fill="black"/>
</g>
<defs>
<clipPath id="clip0">
<rect width="48.4918" height="48.4918" fill="white" transform="translate(51.7541 50.8525)"/>
</clipPath>
</defs>
</svg>
