<svg width="101" height="111" viewBox="0 0 101 111" fill="none" xmlns="http://www.w3.org/2000/svg">
<path d="M94.8783 17.9806C89.3017 16.065 84.8345 11.5724 82.9273 5.96276C81.7146 2.39577 78.3755 0 74.6171 0H26.1935C22.4359 0 19.0959 2.39577 17.8832 5.96276C15.9761 11.5724 11.5089 16.065 5.93227 17.9806C2.38392 19.2001 0 22.5494 0 26.3154V38.5653C0 54.5507 4.78986 69.9424 13.8521 83.0772C22.1438 95.0951 33.5696 104.499 46.8959 110.275C48.0112 110.759 49.2078 111 50.4053 111C51.6019 111 52.7985 110.759 53.9138 110.275C67.2401 104.5 78.6659 95.0951 86.9576 83.0772C96.0198 69.9424 100.811 54.5498 100.811 38.5653V26.3154C100.811 22.5494 98.4266 19.2001 94.8783 17.9806ZM94.3066 38.5653C94.3066 53.2245 89.914 67.3391 81.6037 79.3841C74.0048 90.3984 63.535 99.0169 51.3275 104.307C50.7423 104.561 50.0691 104.562 49.4822 104.307C37.2738 99.0169 26.8049 90.3984 19.206 79.3841C10.8966 67.34 6.50391 53.2253 6.50391 38.5653V26.3154C6.50391 25.3263 7.12381 24.4489 8.04604 24.1322C15.5111 21.5671 21.4908 15.5577 24.0407 8.05621C24.3566 7.12804 25.2213 6.50391 26.1935 6.50391H74.6171C75.5884 6.50391 76.4539 7.12804 76.7698 8.05621C79.3197 15.5577 85.2994 21.5671 92.7645 24.1322C93.6867 24.4489 94.3066 25.3263 94.3066 26.3154V38.5653Z" fill="black"/>
<g clip-path="url(#clip0)">
<path d="M76.8832 49.2321C76.7731 47.8018 76.1265 46.5238 75.0629 45.6333C74.0672 44.7998 72.816 44.4113 71.5395 44.5393C69.7985 44.7139 68.265 45.8528 67.5091 47.4924L65.9269 47.6322L64.3652 47.1945C64.2438 47.1604 64.1459 47.0643 64.1032 46.9374C63.6494 45.5873 63.0017 44.3124 62.1764 43.1447L62.7291 41.6588L64.4734 39.7722C65.4655 39.7389 66.388 39.3016 67.0496 38.539C68.2467 37.1592 68.197 35.0445 66.9362 33.7249C66.2442 33.0007 65.3121 32.6037 64.3151 32.6144C63.3308 32.6224 62.3831 33.0414 61.7151 33.764C61.0607 34.4717 60.7257 35.3948 60.7673 36.3451L59.0228 38.232L57.5611 38.91C55.3808 37.6356 52.9051 36.9463 50.3727 36.9096L49.4169 35.3853L49.0798 33.7103C50.4227 32.6123 51.0502 30.9068 50.6913 29.2266C50.1528 26.7053 47.5565 25.0629 44.9042 25.566C43.5688 25.8191 42.4327 26.5617 41.705 27.6567C41.0233 28.6825 40.7879 29.9028 41.0421 31.0929C41.381 32.6796 42.5312 33.9595 44.0961 34.5305L44.4684 36.381L44.1722 38.1846C42.8231 38.7881 41.5789 39.5882 40.4641 40.5687L39.3685 40.3735L38.1305 39.4395C37.9536 38.4993 37.4109 37.6716 36.6045 37.1306C35.0995 36.1207 33.0759 36.3969 31.8972 37.773C31.2457 38.5338 30.9461 39.4993 31.0538 40.4916C31.1599 41.4702 31.6714 42.3713 32.457 42.964C33.2693 43.5768 34.3024 43.8106 35.2912 43.6205L36.3286 44.4032L36.7939 45.3553C36.8145 45.3975 36.815 45.4461 36.7955 45.4885C35.9081 47.4181 35.4582 49.4781 35.4582 51.6114C35.4582 52.0063 35.4745 52.4077 35.5068 52.8044C35.5117 52.8657 35.4875 52.9217 35.4419 52.9541L33.69 54.2023L31.6904 54.8314C30.4627 53.8814 28.8392 53.5945 27.345 54.0884C27.3151 54.0983 27.2856 54.109 27.2562 54.1199L27.2315 54.1289C26.8199 54.2772 26.6064 54.7311 26.7546 55.1428C26.9028 55.5543 27.3565 55.768 27.7684 55.6197L27.8055 55.6062C27.818 55.6016 27.8304 55.5969 27.8428 55.5928C28.9341 55.2319 30.1298 55.5003 30.9636 56.2931C31.113 56.4352 31.3092 56.5111 31.5095 56.5111C31.5889 56.5111 31.6691 56.4992 31.7471 56.4746L34.2852 55.6761C34.3646 55.6512 34.4395 55.6139 34.5073 55.5656L36.3613 54.2446C36.8584 53.8905 37.1361 53.2894 37.0861 52.6758C37.0573 52.3216 37.0426 51.9635 37.0426 51.6113C37.0426 49.7082 37.4438 47.8708 38.2351 46.1504C38.4541 45.6741 38.4477 45.1307 38.2176 44.6596L37.6689 43.537C37.6142 43.4249 37.5338 43.3275 37.4343 43.2524L35.9429 42.1272C35.7374 41.9722 35.4692 41.9266 35.2242 42.0052C34.6056 42.2034 33.928 42.0889 33.4114 41.6991C32.967 41.3639 32.6893 40.8743 32.6292 40.3206C32.5692 39.7675 32.7367 39.2288 33.1008 38.8036C33.7462 38.0502 34.8975 37.8931 35.7218 38.4462C36.23 38.7873 36.5507 39.3317 36.6017 39.9401C36.6205 40.1647 36.7341 40.3707 36.9141 40.5064L38.5659 41.7527C38.6654 41.8278 38.7813 41.8783 38.9041 41.9001L40.5684 42.1967C40.8134 42.2405 41.0641 42.1665 41.2462 41.9975C42.4057 40.9216 43.731 40.0725 45.1854 39.4739C45.4395 39.3693 45.6212 39.1407 45.6656 38.8697L46.0556 36.4951C46.0711 36.4006 46.0694 36.3042 46.0505 36.2104L45.5571 33.7582C45.4973 33.4604 45.2724 33.223 44.9782 33.1473C43.7531 32.8317 42.8387 31.9177 42.592 30.7622C42.4276 29.9927 42.5814 29.2013 43.0251 28.5338C43.5147 27.797 44.287 27.2959 45.1998 27.1228C47.0138 26.7793 48.7822 27.8712 49.1423 29.5575C49.4001 30.7651 48.8629 32.0005 47.7735 32.7048C47.5002 32.8815 47.3628 33.2074 47.427 33.5264L47.8925 35.8397C47.9115 35.9335 47.9472 36.0231 47.998 36.1042L49.1423 37.9297C49.3632 38.2821 49.7434 38.4926 50.1613 38.4926H50.1617C52.5462 38.4926 54.883 39.1424 56.9197 40.372C57.2611 40.578 57.6801 40.6014 58.0405 40.4344L59.8317 39.6035C59.9255 39.56 60.0099 39.4985 60.0801 39.4226L62.1716 37.1604C62.3357 36.983 62.4098 36.7404 62.3728 36.5014C62.2789 35.8947 62.4633 35.289 62.8788 34.8397C63.2566 34.431 63.7715 34.2035 64.3283 34.1989C64.8831 34.1988 65.4041 34.4147 65.7908 34.8196C66.4927 35.5542 66.5201 36.7319 65.853 37.5007C65.4347 37.9828 64.8295 38.2317 64.1923 38.1838C63.9513 38.1655 63.715 38.2586 63.5511 38.436L61.4596 40.6982C61.3894 40.7741 61.3348 40.863 61.2987 40.9599L60.6188 42.7882C60.479 43.1639 60.5372 43.5826 60.7743 43.9083C61.5624 44.991 62.1772 46.18 62.6015 47.4424C62.8114 48.067 63.3109 48.5447 63.9378 48.7204L65.6388 49.1971C65.7309 49.223 65.8269 49.2318 65.9223 49.2234L68.1314 49.0283C68.4421 49.0009 68.7078 48.7937 68.8102 48.499C69.2675 47.1815 70.4011 46.2461 71.6979 46.1161C72.546 46.0309 73.3803 46.2911 74.0462 46.8485C74.78 47.4629 75.2267 48.3527 75.3038 49.354C75.3548 50.0157 75.2352 50.6801 74.958 51.2755C74.7734 51.6722 74.9451 52.1434 75.3419 52.3281C75.7387 52.5128 76.2098 52.341 76.3945 51.9443C76.7859 51.1024 76.955 50.1646 76.8832 49.2321V49.2321Z" fill="black"/>
<path d="M72.8961 53.1549C72.6737 53.2281 72.4443 53.2769 72.2142 53.3C70.8432 53.4373 69.5618 52.6781 68.9484 51.3654C68.8074 51.0637 68.4925 50.8822 68.1609 50.9117L66.0872 51.0949C65.9918 51.1033 65.8988 51.1289 65.8126 51.1705L64.2473 51.9257C63.6543 52.2117 63.2451 52.7769 63.1529 53.4373C63.0155 54.42 62.7653 55.3871 62.4092 56.3117C62.1967 56.8636 62.2387 57.4734 62.5247 57.9846L63.0822 58.9815C63.143 59.0903 63.2287 59.1833 63.3323 59.2527L64.8838 60.2936C65.0975 60.437 65.3678 60.4675 65.6083 60.3757C66.2147 60.1436 66.8977 60.2203 67.4352 60.5809C67.8974 60.8909 68.2019 61.3644 68.2926 61.9138C68.3831 62.4627 68.2458 63.01 67.9056 63.4547C67.3029 64.2429 66.1623 64.4635 65.3085 63.9568C64.7822 63.6444 64.4317 63.1185 64.3471 62.5138C64.3159 62.2906 64.191 62.0913 64.0038 61.9658L62.2854 60.813C62.1819 60.7435 62.0634 60.6994 61.9397 60.6844L60.8581 60.5529C60.2532 60.4792 59.65 60.681 59.2037 61.1064C58.3376 61.9317 57.3649 62.6347 56.3129 63.1957C55.7011 63.5219 55.2938 64.1584 55.2501 64.8566L55.1128 67.0478C55.1078 67.1295 55.1153 67.2116 55.1353 67.2909L55.8153 69.9894C55.8847 70.2649 56.0965 70.4822 56.3701 70.5587C57.2926 70.8168 58.0109 71.5528 58.2445 72.4795C58.4223 73.1851 58.3099 73.915 57.9278 74.5347C57.5461 75.154 56.9437 75.5823 56.2319 75.7409C54.9049 76.0366 53.5355 75.2572 53.115 73.9667C52.7975 72.9918 53.054 71.9409 53.7842 71.2239C53.985 71.0268 54.0661 70.7379 53.9974 70.465L53.3132 67.7501C53.2932 67.6708 53.261 67.5949 53.2178 67.5254L52.1631 65.8289C51.7356 65.1411 50.9909 64.7307 50.1628 64.7307C50.1622 64.7307 50.1617 64.7307 50.1611 64.7307C49.3044 64.7307 48.4468 64.647 47.6119 64.4817C46.816 64.3241 46.0112 64.5783 45.459 65.1611L44.0645 66.6327C44.0082 66.6922 43.9614 66.7599 43.9258 66.8336L42.3647 70.0724C42.259 70.2918 42.2601 70.5477 42.3676 70.7662C42.6411 71.3218 42.6442 71.9593 42.3763 72.5153C42.1344 73.0172 41.7082 73.3856 41.1765 73.5528C40.6452 73.7199 40.0835 73.6605 39.5951 73.3856C38.736 72.9021 38.356 71.8086 38.73 70.8963C38.9794 70.288 39.4889 69.8538 40.1281 69.7051C40.3617 69.6508 40.5581 69.4935 40.6623 69.2775L42.2334 66.0179C42.2689 65.9442 42.2929 65.8654 42.3042 65.7844L42.612 63.5961C42.7074 62.9183 42.4391 62.2318 41.912 61.8044C40.7247 60.8416 39.7223 59.6926 38.9324 58.3894C38.5863 57.8184 37.9525 57.4597 37.2782 57.4534L35.0937 57.4326C35.0104 57.4315 34.9278 57.4441 34.8485 57.469L32.4568 58.2214C32.1577 58.3155 31.9422 58.5771 31.9072 58.8886C31.7696 60.1108 30.9235 61.1388 29.7515 61.5075C28.1353 62.016 26.3917 61.1196 25.8656 59.5091C25.6564 58.8688 25.6632 58.1894 25.8853 57.5442C26.0277 57.1304 25.8078 56.6796 25.394 56.5372C24.9802 56.3946 24.5294 56.6149 24.3871 57.0285C24.0519 58.0024 24.0423 59.0303 24.3594 60.0011C25.0031 61.9714 26.8528 63.234 28.8302 63.2339C29.2933 63.2339 29.7638 63.1646 30.227 63.0189C31.8273 62.5151 33.0249 61.1985 33.3935 59.5873L35.2046 59.0175L37.2636 59.0371C37.3935 59.0384 37.514 59.1046 37.5778 59.21C38.4624 60.6697 39.5851 61.9565 40.9144 63.0346C41.0123 63.1139 41.0618 63.2444 41.0434 63.3749L40.7528 65.441L39.3877 68.2733C38.4318 68.6116 37.6537 69.3454 37.2643 70.2952C36.5813 71.9612 37.2494 73.8835 38.8185 74.7663C39.6923 75.2581 40.6988 75.364 41.6521 75.0642C42.592 74.7687 43.3764 74.0904 43.8041 73.2031C44.2262 72.3273 44.2737 71.3396 43.9478 70.438L45.3 67.6326L46.6096 66.2506C46.7857 66.0647 47.0455 65.9845 47.3048 66.0358C48.2407 66.221 49.2018 66.315 50.1708 66.315H50.1714C50.4399 66.315 50.6817 66.4459 50.818 66.6652L51.8075 68.2569L52.3577 70.44C51.4416 71.558 51.1529 73.0572 51.609 74.4573C52.1836 76.2217 53.8691 77.3871 55.6714 77.387C55.9714 77.387 56.2749 77.3547 56.5768 77.2875C57.7098 77.0352 58.6688 76.3529 59.277 75.3662C59.8855 74.3792 60.0645 73.2165 59.7812 72.0925C59.4482 70.7706 58.4967 69.6925 57.2472 69.1865L56.7023 67.0236L56.8318 64.9557C56.8414 64.802 56.9284 64.6633 57.0588 64.5938C58.2374 63.9652 59.3269 63.1778 60.2971 62.2536C60.3993 62.1563 60.5342 62.1099 60.6672 62.126L61.5606 62.2345L62.8484 63.0986C63.0771 64.0275 63.665 64.8239 64.5001 65.3195C66.0587 66.2443 68.0639 65.8565 69.1644 64.4172C69.773 63.6215 70.0186 62.6409 69.856 61.656C69.6958 60.6848 69.1352 59.8134 68.318 59.2651C67.4731 58.6983 66.4286 58.5222 65.4518 58.7667L64.3727 58.0427L63.9078 57.2114C63.8526 57.1125 63.8454 56.9922 63.888 56.8813C64.2875 55.8439 64.5682 54.7589 64.7222 53.6567C64.741 53.522 64.821 53.4084 64.9359 53.353L66.3709 52.6607L67.7797 52.5362C68.7589 54.1569 70.5062 55.0641 72.3725 54.8768C72.7169 54.8423 73.0597 54.7694 73.3915 54.6603C73.8071 54.5235 74.0331 54.0757 73.8963 53.66C73.7595 53.2441 73.3116 53.0182 72.8961 53.1549V53.1549Z" fill="black"/>
<path d="M52.7067 40.8124C51.8761 40.6173 51.0198 40.5185 50.1614 40.5185C44.0447 40.5185 39.0684 45.4947 39.0684 51.6115C39.0684 57.7283 44.0446 62.7046 50.1614 62.7046C56.2782 62.7046 61.2545 57.7283 61.2545 51.6115C61.2545 47.7871 59.3226 44.281 56.0868 42.2326C55.717 41.9986 55.2275 42.1086 54.9936 42.4782C54.7596 42.8479 54.8696 43.3373 55.2393 43.5714C58.0137 45.3276 59.67 48.3334 59.67 51.6115C59.67 56.8545 55.4045 61.1201 50.1614 61.1201C44.9183 61.1201 40.6528 56.8546 40.6528 51.6115C40.6528 46.3684 44.9183 42.1029 50.1614 42.1029C50.898 42.1029 51.6324 42.1878 52.3445 42.355C52.7705 42.4553 53.1968 42.1908 53.2969 41.7649C53.3969 41.3389 53.1326 40.9126 52.7067 40.8124V40.8124Z" fill="black"/>
<path d="M32.8292 33.6763C34.8837 33.6763 36.555 32.005 36.555 29.9506C36.555 27.8962 34.8837 26.2249 32.8292 26.2249C30.7748 26.2249 29.1035 27.8963 29.1035 29.9507C29.1035 32.005 30.7748 33.6763 32.8292 33.6763ZM32.8292 31.3252C34.0099 31.3252 32.9204 28.7701 32.9204 29.9507C32.9204 31.1313 34.0099 27.7631 32.8292 27.7631C31.6486 27.7631 33.5301 31.1312 33.5301 29.9506C33.5301 28.77 31.6486 31.3252 32.8292 31.3252Z" fill="black"/>
<path d="M32.0273 65.8885C30.5221 65.8885 29.2974 67.1131 29.2974 68.6184C29.2974 70.1236 30.5219 71.3483 32.0273 71.3483C33.5325 71.3483 34.7571 70.1237 34.7571 68.6184C34.7571 67.1132 33.5325 65.8885 32.0273 65.8885ZM32.0273 69.7638C31.3957 69.7638 33.1727 70.3955 33.1727 69.7638C33.1727 69.1323 31.9885 69.7638 32.6202 69.7638C33.2517 69.7638 31.407 69.7291 31.407 70.3607C31.407 70.9923 32.6589 69.7638 32.0273 69.7638Z" fill="black"/>
<path d="M67.6027 68.1552C65.5922 68.1552 63.9565 69.7908 63.9565 71.8013C63.9565 73.8119 65.5921 75.4475 67.6027 75.4475C69.6133 75.4475 71.2489 73.8119 71.2489 71.8013C71.2489 69.7908 69.6132 68.1552 67.6027 68.1552ZM67.6027 69.7541C66.4659 69.7541 67.8005 73.014 67.8005 71.877C67.8005 70.7401 66.4658 74.4286 67.6027 74.4286C68.7396 74.4286 67.4972 70.7401 67.4972 71.877C67.4972 73.014 68.7395 69.7541 67.6027 69.7541Z" fill="black"/>
<path d="M50.4526 48.7708C50.4526 46.8668 48.9036 45.3178 46.9996 45.3178C45.0956 45.3178 43.5466 46.8668 43.5466 48.7708C43.5466 50.6748 45.0956 52.2238 46.9996 52.2238C48.9036 52.2238 50.4526 50.6747 50.4526 48.7708ZM46.5711 48.7708C46.5711 49.8011 45.5408 48.7708 46.5711 48.7708C46.5711 47.7405 44.3277 50.3443 45.358 50.3443C45.358 49.3139 46.3883 50.3443 45.358 50.3443C45.358 51.3746 47.6015 48.7708 46.5711 48.7708Z" fill="black"/>
<path d="M49.1355 59.6383C50.5709 59.6383 51.7388 58.4705 51.7388 57.0351C51.7388 55.5996 50.5709 54.4318 49.1355 54.4318C47.7001 54.4318 46.5322 55.5996 46.5322 57.0351C46.5322 58.4706 47.7 59.6383 49.1355 59.6383ZM49.1355 57.0164C49.6973 57.0164 48.694 56.4546 48.694 57.0164C48.694 57.5781 49.7147 56.8172 49.1529 56.8172C48.5912 56.8172 49.6038 57.5968 49.6038 57.0351C49.6038 56.4733 48.5737 57.0164 49.1355 57.0164Z" fill="black"/>
<path d="M52.5093 51.6115C52.5093 52.8869 53.5469 53.9245 54.8223 53.9245C56.0977 53.9245 57.1353 52.8869 57.1353 51.6115C57.1353 50.3361 56.0977 49.2985 54.8223 49.2985C53.5469 49.2985 52.5093 50.336 52.5093 51.6115ZM54.8223 50.8829C55.224 50.8829 53.2433 50.2458 53.2433 50.6475C53.2433 51.0493 55.224 52.34 54.8223 52.34C54.4206 52.34 55.9728 52.5656 55.9728 52.1639C55.9728 51.7622 54.4205 50.8829 54.8223 50.8829Z" fill="black"/>
</g>
<defs>
<clipPath id="clip0">
<rect width="52.7705" height="52.7705" fill="white" transform="translate(24.1284 24.8689)"/>
</clipPath>
</defs>
</svg>
