<svg width="37" height="51" viewBox="0 0 37 51" fill="none" xmlns="http://www.w3.org/2000/svg">
<path d="M30.0068 43.6099V49.9739C30.0068 50.5406 29.5474 51 28.9806 51H1.02617C0.459397 51 0 50.5406 0 49.9739V43.6099C0 36.5015 5.7625 30.7389 12.871 30.7389H17.1358C24.2442 30.7389 30.0068 36.5015 30.0068 43.6099Z" fill="black"/>
<path d="M24.9152 42.2499V51H23.376V42.2499C23.376 41.8251 23.7208 41.4803 24.1456 41.4803C24.5705 41.4803 24.9152 41.8251 24.9152 42.2499Z" fill="black"/>
<path d="M6.63106 42.2499V51H5.0918V42.2499C5.0918 41.8251 5.43555 41.4803 5.86138 41.4803C6.28631 41.4803 6.63106 41.8251 6.63106 42.2499Z" fill="black"/>
<path d="M30.0069 43.6103V49.9734C30.0069 50.5402 29.5475 50.9996 28.9807 50.9996H26.5297V43.6103C26.5297 36.5016 20.7671 30.739 13.6594 30.739H17.1356C24.2442 30.7389 30.0069 36.5016 30.0069 43.6103Z" fill="black"/>
<path d="M17.7337 27.6585V32.5162C17.7337 34.0235 16.5111 35.246 15.0038 35.246C13.4953 35.246 12.2727 34.0234 12.2727 32.5162V27.6585H17.7337Z" fill="black"/>
<path d="M16.83 28.56V31.8251C16.83 32.8383 16.0308 33.66 15.0454 33.66C14.0593 33.66 13.26 32.8382 13.26 31.8251V28.56H16.83Z" fill="white"/>
<path d="M24.9028 21.0713C26.6298 21.0713 28.0298 19.6713 28.0298 17.9443C28.0298 16.2174 26.6298 14.8174 24.9028 14.8174C23.1759 14.8174 21.7759 16.2174 21.7759 17.9443C21.7759 19.6713 23.1759 21.0713 24.9028 21.0713Z" fill="black"/>
<path d="M5.10399 21.0713C6.83095 21.0713 8.23093 19.6713 8.23093 17.9443C8.23093 16.2174 6.83095 14.8174 5.10399 14.8174C3.37703 14.8174 1.97705 16.2174 1.97705 17.9443C1.97705 19.6713 3.37703 21.0713 5.10399 21.0713Z" fill="black"/>
<path d="M5.10006 19.89C6.22672 19.89 7.14006 18.9767 7.14006 17.85C7.14006 16.7233 6.22672 15.81 5.10006 15.81C3.9734 15.81 3.06006 16.7233 3.06006 17.85C3.06006 18.9767 3.9734 19.89 5.10006 19.89Z" fill="white"/>
<path d="M24.99 19.89C26.1166 19.89 27.03 18.9767 27.03 17.85C27.03 16.7233 26.1166 15.81 24.99 15.81C23.8633 15.81 22.95 16.7233 22.95 17.85C22.95 18.9767 23.8633 19.89 24.99 19.89Z" fill="white"/>
<path d="M24.0187 13.8339V19.8407C24.0187 24.8121 20.0426 28.9307 15.0712 28.9687C10.0608 29.0046 5.9873 24.9557 5.9873 19.9535V13.8339C5.9873 8.85436 10.025 4.81879 15.0035 4.81879C17.4939 4.81879 19.7471 5.82743 21.3786 7.45893C23.0091 9.09143 24.0187 11.3447 24.0187 13.8339Z" fill="black"/>
<path d="M22.6381 14.4356V19.6365C22.6381 23.9409 19.2643 27.5069 15.046 27.5398C10.7946 27.5709 7.33813 24.0652 7.33813 19.7342V14.4356C7.33813 10.1241 10.7642 6.63 14.9886 6.63C17.1017 6.63 19.0136 7.50332 20.398 8.91593C21.7814 10.3294 22.6381 12.2804 22.6381 14.4356Z" fill="white"/>
<path d="M23.8395 13.6052V14.9165C23.1161 15.1536 22.3465 15.2787 21.5545 15.2787H8.09524C7.30314 15.2787 6.53356 15.1525 5.80811 14.9154V13.6052C5.80811 8.6256 9.84577 4.59003 14.8243 4.59003C17.3147 4.59003 19.5679 5.59867 21.1994 7.23017C22.8299 8.86267 23.8395 11.1159 23.8395 13.6052Z" fill="black"/>
<path d="M23.6581 12.173V13.4244C22.9625 13.6506 22.2224 13.77 21.4607 13.77H8.51755C7.75583 13.77 7.01575 13.6496 6.31812 13.4233V12.173C6.31812 7.42108 10.201 3.57001 14.9886 3.57001C17.3835 3.57001 19.5504 4.53254 21.1193 6.08945C22.6872 7.64731 23.6581 9.79755 23.6581 12.173Z" fill="white"/>
<path d="M11.234 0C7.27633 0 3.85236 2.81934 3.16426 6.71676C3.11236 7.01081 3.06983 7.30884 3.03706 7.61026C2.94183 8.48712 3.06704 9.37434 3.40272 10.19L3.40392 10.1929C4.21613 12.1668 6.13959 13.4552 8.27402 13.4552H21.7337C23.8705 13.4552 25.7954 12.1642 26.6062 10.1873C26.9401 9.37304 27.0644 8.48801 26.9696 7.61314C26.9368 7.31073 26.8942 7.0118 26.8421 6.71686C26.154 2.81944 22.73 0 18.7724 0L11.234 0Z" fill="black"/>
<path d="M19.2519 16.9352L19.2431 16.9351C19.2401 16.935 19.2371 16.935 19.234 16.935C18.8133 16.935 18.4738 17.2738 18.469 17.6958C18.4642 18.1208 18.809 18.4695 19.2341 18.4743C19.2371 18.4744 19.2401 18.4744 19.2432 18.4744C19.6641 18.4744 20.0077 18.1356 20.0125 17.7135C20.0175 17.2885 19.677 16.94 19.2519 16.9352Z" fill="black"/>
<path d="M10.7723 16.9352H10.7637C10.3386 16.9352 9.99829 17.2797 9.99829 17.7048C9.99829 18.1299 10.3471 18.4743 10.7723 18.4743C11.1974 18.4743 11.5418 18.1298 11.5418 17.7048C11.5419 17.2797 11.1974 16.9352 10.7723 16.9352Z" fill="black"/>
<path d="M17.6593 21.3454C17.2332 21.3312 16.8777 21.6619 16.8624 22.0868C16.8261 23.092 16.0094 23.8795 15.0031 23.8795C13.9966 23.8795 13.1799 23.0921 13.1438 22.0869C13.1285 21.662 12.7715 21.3296 12.347 21.3454C11.9221 21.3607 11.5902 21.7174 11.6055 22.1422C11.6716 23.9795 13.164 25.4186 15.0031 25.4186C16.842 25.4186 18.3344 23.9795 18.4006 22.1423C18.416 21.7174 18.0841 21.3607 17.6593 21.3454Z" fill="black"/>
<path d="M30.0994 46.6637C30.0174 46.6898 29.9287 46.6898 29.8466 46.6637C27.6835 45.9758 25.9987 44.8126 24.8328 43.2001C24.6125 42.8953 24.4297 42.599 24.279 42.3234C23.8679 41.5716 23.6582 40.7262 23.6582 39.8693V33.4755C23.6582 33.2819 23.7906 33.1133 23.9787 33.0675L29.8736 31.6319C29.9389 31.616 30.0071 31.616 30.0723 31.6319L35.9672 33.0675C36.1554 33.1133 36.2878 33.2819 36.2878 33.4755V40.49C36.2878 40.7411 36.2455 40.9902 36.1614 41.2268C35.9955 41.6935 35.6783 42.4186 35.1131 43.2002C33.9474 44.8126 32.2626 45.9758 30.0994 46.6637Z" fill="black"/>
<path d="M30.1303 44.8648C30.0673 44.8851 29.9993 44.8851 29.9363 44.8648C28.2766 44.3291 26.984 43.4233 26.0894 42.1676C25.9204 41.9303 25.7801 41.6996 25.6645 41.4849C25.3491 40.8995 25.1882 40.2412 25.1882 39.5739V34.5949C25.1882 34.4442 25.2898 34.3129 25.4342 34.2772L29.957 33.1593C30.0071 33.1469 30.0594 33.1469 30.1095 33.1593L34.6323 34.2772C34.7767 34.3129 34.8782 34.4442 34.8782 34.5949V40.0572C34.8782 40.2528 34.8458 40.4468 34.7812 40.631C34.654 40.9944 34.4106 41.5591 33.977 42.1677C33.0826 43.4233 31.7899 44.3291 30.1303 44.8648Z" fill="white"/>
<path d="M28.1187 39.4988H29.2035V40.5836C29.2035 41.0087 29.548 41.3532 29.973 41.3532C30.3982 41.3532 30.7426 41.0086 30.7426 40.5836V39.4988H31.8274C32.2525 39.4988 32.5969 39.1543 32.5969 38.7293C32.5969 38.3042 32.2524 37.9597 31.8274 37.9597H30.7426V36.8749C30.7426 36.4498 30.3981 36.1053 29.973 36.1053C29.5479 36.1053 29.2035 36.4499 29.2035 36.8749V37.9597H28.1187C27.6936 37.9597 27.3491 38.3042 27.3491 38.7293C27.3491 39.1543 27.6937 39.4988 28.1187 39.4988Z" fill="black"/>
</svg>
