<svg width="32" height="32" viewBox="0 0 32 32" fill="none" xmlns="http://www.w3.org/2000/svg">
<circle cx="16" cy="16" r="16" fill="black"/>
<path d="M16.0113 8.00001C11.8526 7.99432 8.383 11.176 8.02934 15.3197C7.67569 19.4634 10.5559 23.187 14.6555 23.8862C18.7551 24.5853 22.7066 22.0267 23.7463 18H21.6653C20.6481 20.8771 17.6334 22.5324 14.6598 21.8465C11.6862 21.1605 9.70124 18.3519 10.0471 15.3199C10.3931 12.2879 12.9597 9.99856 16.0113 10C17.6009 10.0023 19.1227 10.6438 20.2343 11.78L17.0163 15H24.0163V8.00001L21.6653 10.35C20.1691 8.84464 18.1338 7.99873 16.0113 8.00001Z" fill="white"/>
</svg>
